HIERARCHY
ROOT reference
{
  OFFSET 0 0 0
  CHANNELS 6 Xposition Yposition Zposition Zrotation Xrotation Yrotation
  JOINT Hips
  {
    OFFSET 368.823 89.7904 194.012
    CHANNELS 3 Zrotation Xrotation Yrotation
    JOINT RightUpLeg
    {
      OFFSET -9.24587 -1.53924 -0.0496539
      CHANNELS 3 Zrotation Xrotation Yrotation
      JOINT RightLeg
      {
        OFFSET 0.0288962 -41.8853 0.065208
        CHANNELS 3 Zrotation Xrotation Yrotation
        JOINT RightFoot
        {
          OFFSET -0.153961 -42.496 -0.469978
          CHANNELS 3 Zrotation Xrotation Yrotation
          End Site
          {
            OFFSET 0 -7.69 17.5
          }
        }
      }
    }
    JOINT LeftUpLeg
    {
      OFFSET 9.30368 -1.65799 0.0114032
      CHANNELS 3 Zrotation Xrotation Yrotation
      JOINT LeftLeg
      {
        OFFSET 0.0812002 -41.8405 -0.136291
        CHANNELS 3 Zrotation Xrotation Yrotation
        JOINT LeftFoot
        {
          OFFSET 0.408244 -41.1613 0.400562
          CHANNELS 3 Zrotation Xrotation Yrotation
          End Site
          {
            OFFSET 0 -7.69 17.5
          }
        }
      }
    }
    JOINT Spine
    {
      OFFSET 0.0091145 14.2923 0.0603898
      CHANNELS 3 Zrotation Xrotation Yrotation
      JOINT Spine1
      {
        OFFSET 0.0313032 9.72692 0.0269052
        CHANNELS 3 Zrotation Xrotation Yrotation
        JOINT Spine2
        {
          OFFSET 0.0416827 10.1254 -0.000588186
          CHANNELS 3 Zrotation Xrotation Yrotation
          JOINT Spine3
          {
            OFFSET 0.0353017 9.71596 0.00525809
            CHANNELS 3 Zrotation Xrotation Yrotation
            JOINT Neck
            {
              OFFSET 0.0870676 10.3793 0.0454457
              CHANNELS 3 Zrotation Xrotation Yrotation
              JOINT Head
              {
                OFFSET 0.0878806 9.48152 0.0233162
                CHANNELS 3 Zrotation Xrotation Yrotation
                End Site
                {
                  OFFSET 0 15.95 0
                }
              }
            }
            JOINT RightShoulder
            {
              OFFSET -3.16008 6.92912 0.0289115
              CHANNELS 3 Zrotation Xrotation Yrotation
              JOINT RightArm
              {
                OFFSET -12.7589 0.0216905 0.0632467
                CHANNELS 3 Zrotation Xrotation Yrotation
                JOINT RightForeArm
                {
                  OFFSET -26.506 -0.0577999 0.0567862
                  CHANNELS 3 Zrotation Xrotation Yrotation
                  JOINT RightHand
                  {
                    OFFSET -25.9836 -0.0526551 -0.00138994
                    CHANNELS 3 Zrotation Xrotation Yrotation
                    JOINT RightHandThumb1
                    {
                      OFFSET -2.48905 0.190105 3.12053
                      CHANNELS 3 Zrotation Xrotation Yrotation
                      JOINT RightHandThumb2
                      {
                        OFFSET -3.68274 0 0
                        CHANNELS 3 Zrotation Xrotation Yrotation
                        JOINT RightHandThumb3
                        {
                          OFFSET -2.55832 0 0
                          CHANNELS 3 Zrotation Xrotation Yrotation
                          End Site
                          {
                            OFFSET -2.194 0 0
                          }
                        }
                      }
                    }
                    JOINT RightInHandIndex
                    {
                      OFFSET -3.22368 0.508421 1.97842
                      CHANNELS 3 Zrotation Xrotation Yrotation
                      JOINT RightHandIndex1
                      {
                        OFFSET -5.21684 -0.091368 0.999158
                        CHANNELS 3 Zrotation Xrotation Yrotation
                        JOINT RightHandIndex2
                        {
                          OFFSET -3.61937 0 0
                          CHANNELS 3 Zrotation Xrotation Yrotation
                          JOINT RightHandIndex3
                          {
                            OFFSET -2.0521 0 0
                            CHANNELS 3 Zrotation Xrotation Yrotation
                            End Site
                            {
                              OFFSET -1.805 0 0
                            }
                          }
                        }
                      }
                    }
                    JOINT RightInHandMiddle
                    {
                      OFFSET -3.38211 0.517263 0.756737
                      CHANNELS 3 Zrotation Xrotation Yrotation
                      JOINT RightHandMiddle1
                      {
                        OFFSET -5.17411 -0.084 0.313895
                        CHANNELS 3 Zrotation Xrotation Yrotation
                        JOINT RightHandMiddle2
                        {
                          OFFSET -3.94947 0 0
                          CHANNELS 3 Zrotation Xrotation Yrotation
                          JOINT RightHandMiddle3
                          {
                            OFFSET -2.47579 0 0
                            CHANNELS 3 Zrotation Xrotation Yrotation
                            End Site
                            {
                              OFFSET -1.975 0 0
                            }
                          }
                        }
                      }
                    }
                    JOINT RightInHandRing
                    {
                      OFFSET -3.36516 0.537895 -0.128947
                      CHANNELS 3 Zrotation Xrotation Yrotation
                      JOINT RightHandRing1
                      {
                        OFFSET -4.63474 -0.022105 -0.478947
                        CHANNELS 3 Zrotation Xrotation Yrotation
                        JOINT RightHandRing2
                        {
                          OFFSET -3.44238 0 0
                          CHANNELS 3 Zrotation Xrotation Yrotation
                          JOINT RightHandRing3
                          {
                            OFFSET -2.3881 0 0
                            CHANNELS 3 Zrotation Xrotation Yrotation
                            End Site
                            {
                              OFFSET -1.857 0 0
                            }
                          }
                        }
                      }
                    }
                    JOINT RightInHandPinky
                    {
                      OFFSET -3.16105 0.469368 -1.20179
                      CHANNELS 3 Zrotation Xrotation Yrotation
                      JOINT RightHandPinky1
                      {
                        OFFSET -4.14105 -0.022105 -1.09053
                        CHANNELS 3 Zrotation Xrotation Yrotation
                        JOINT RightHandPinky2
                        {
                          OFFSET -2.75653 0 0
                          CHANNELS 3 Zrotation Xrotation Yrotation
                          JOINT RightHandPinky3
                          {
                            OFFSET -1.74189 0 0
                            CHANNELS 3 Zrotation Xrotation Yrotation
                            End Site
                            {
                              OFFSET -1.645 0 0
                            }
                          }
                        }
                      }
                    }
                  }
                }
              }
            }
            JOINT LeftShoulder
            {
              OFFSET 3.24363 6.91883 -0.0263005
              CHANNELS 3 Zrotation Xrotation Yrotation
              JOINT LeftArm
              {
                OFFSET 12.8387 -0.0254922 -0.065819
                CHANNELS 3 Zrotation Xrotation Yrotation
                JOINT LeftForeArm
                {
                  OFFSET 26.503 -0.0679028 -0.0690065
                  CHANNELS 3 Zrotation Xrotation Yrotation
                  JOINT LeftHand
                  {
                    OFFSET 25.9897 -0.0384179 -0.0536179
                    CHANNELS 3 Zrotation Xrotation Yrotation
                    JOINT LeftHandThumb1
                    {
                      OFFSET 2.48905 0.190105 3.12053
                      CHANNELS 3 Zrotation Xrotation Yrotation
                      JOINT LeftHandThumb2
                      {
                        OFFSET 3.68274 0 0
                        CHANNELS 3 Zrotation Xrotation Yrotation
                        JOINT LeftHandThumb3
                        {
                          OFFSET 2.55832 0 0
                          CHANNELS 3 Zrotation Xrotation Yrotation
                          End Site
                          {
                            OFFSET 2.194 0 0
                          }
                        }
                      }
                    }
                    JOINT LeftInHandIndex
                    {
                      OFFSET 3.22368 0.508421 1.97842
                      CHANNELS 3 Zrotation Xrotation Yrotation
                      JOINT LeftHandIndex1
                      {
                        OFFSET 5.21684 -0.091368 0.999158
                        CHANNELS 3 Zrotation Xrotation Yrotation
                        JOINT LeftHandIndex2
                        {
                          OFFSET 3.61937 0 0
                          CHANNELS 3 Zrotation Xrotation Yrotation
                          JOINT LeftHandIndex3
                          {
                            OFFSET 2.0521 0 0
                            CHANNELS 3 Zrotation Xrotation Yrotation
                            End Site
                            {
                              OFFSET 1.805 0 0
                            }
                          }
                        }
                      }
                    }
                    JOINT LeftInHandMiddle
                    {
                      OFFSET 3.38211 0.517263 0.756737
                      CHANNELS 3 Zrotation Xrotation Yrotation
                      JOINT LeftHandMiddle1
                      {
                        OFFSET 5.17411 -0.084 0.313895
                        CHANNELS 3 Zrotation Xrotation Yrotation
                        JOINT LeftHandMiddle2
                        {
                          OFFSET 3.94947 0 0
                          CHANNELS 3 Zrotation Xrotation Yrotation
                          JOINT LeftHandMiddle3
                          {
                            OFFSET 2.47579 0 0
                            CHANNELS 3 Zrotation Xrotation Yrotation
                            End Site
                            {
                              OFFSET 1.975 0 0
                            }
                          }
                        }
                      }
                    }
                    JOINT LeftInHandRing
                    {
                      OFFSET 3.36516 0.537895 -0.128947
                      CHANNELS 3 Zrotation Xrotation Yrotation
                      JOINT LeftHandRing1
                      {
                        OFFSET 4.63474 -0.022105 -0.478947
                        CHANNELS 3 Zrotation Xrotation Yrotation
                        JOINT LeftHandRing2
                        {
                          OFFSET 3.44238 0 0
                          CHANNELS 3 Zrotation Xrotation Yrotation
                          JOINT LeftHandRing3
                          {
                            OFFSET 2.3881 0 0
                            CHANNELS 3 Zrotation Xrotation Yrotation
                            End Site
                            {
                              OFFSET 1.857 0 0
                            }
                          }
                        }
                      }
                    }
                    JOINT LeftInHandPinky
                    {
                      OFFSET 3.16105 0.469368 -1.20179
                      CHANNELS 3 Zrotation Xrotation Yrotation
                      JOINT LeftHandPinky1
                      {
                        OFFSET 4.14105 -0.022105 -1.09053
                        CHANNELS 3 Zrotation Xrotation Yrotation
                        JOINT LeftHandPinky2
                        {
                          OFFSET 2.75653 0 0
                          CHANNELS 3 Zrotation Xrotation Yrotation
                          JOINT LeftHandPinky3
                          {
                            OFFSET 1.74189 0 0
                            CHANNELS 3 Zrotation Xrotation Yrotation
                            End Site
                            {
                              OFFSET 1.645 0 0
                            }
                          }
                        }
                      }
                    }
                  }
                }
              }
            }
          }
        }
      }
    }
  }
}
MOTION
Frames: 2
Frame Time: 0.00833333
6.000000000000000000e+02 0.000000000000000000e+00 0.000000000000000000e+00 0.000000000000000000e+00 0.000000000000000000e+00 0.000000000000000000e+00 -8.133045464246050349e-01 -4.057503445561699285e-01 -1.581870925932999522e-02 3.677695358282441762e-01 1.190412086453416451e+00 1.841551547840420078e+00 6.915805749683463510e-01 1.285029248465725527e-01 -1.369624526863867819e+00 3.817972342635938404e-02 -3.651432646284238914e-02 -2.118796889523885327e-02 -4.072688240170025953e-01 1.113026773880085640e+00 3.003517024325517148e-01 6.759992865835642850e-02 -2.326443467381936470e-01 2.888809898565670720e-01 -1.060177349878050068e-01 4.892721265635734812e-02 -6.722391222215532425e-01 -5.463937542288153926e-02 -5.175885643622466503e-01 -5.650029986344147215e-01 -8.369655972489807583e-03 -1.794470121902088100e-01 -1.210804241688693411e-01 -2.010271337729726757e-02 -2.739670169816559864e-01 -1.881865403399856917e-01 1.754173673451870502e-02 7.805064353010753020e-03 1.112124814725634799e-02 1.765241510016586912e-01 -2.685313648864447456e-01 3.999336009769792089e+00 3.019223026222773720e-01 1.358100575067286764e+00 -2.490574238511434224e+00 -6.806564994944550584e-01 8.302459520377191149e-01 2.807094029397127155e+00 7.154433520496494836e-02 -9.570155922475359622e-02 -1.222580506536232070e+00 9.973229962692745643e-01 -2.527361187528544217e+00 1.311947025018224133e+00 -4.989462229576206442e-01 4.697535602871646399e-01 1.082497024946500908e+00 0.000000000000000000e+00 0.000000000000000000e+00 0.000000000000000000e+00 -3.315655923418895323e-16 -3.193764849211104748e-16 0.000000000000000000e+00 -1.599745903232113368e-15 -3.265237882669641550e-15 0.000000000000000000e+00 -2.698674130809174640e-15 -3.828644837186476644e-16 5.260726710402803416e-16 0.000000000000000000e+00 0.000000000000000000e+00 0.000000000000000000e+00 0.000000000000000000e+00 -5.989954226531790449e-16 -1.976406914669574039e-15 0.000000000000000000e+00 -2.788743296756133580e-15 -3.585391426149203306e-15 -2.698674130809174640e-15 -3.828644837186476644e-16 5.260726710402803416e-16 0.000000000000000000e+00 5.121249587251260785e-17 -1.810725373823790823e-15 0.000000000000000000e+00 2.185381424850842293e-16 -3.013110038850954829e-15 0.000000000000000000e+00 -1.848042126145658710e-15 -2.114671334368604667e-15 -2.698674130809174640e-15 -3.828644837186476644e-16 5.260726710402803416e-16 0.000000000000000000e+00 0.000000000000000000e+00 0.000000000000000000e+00 0.000000000000000000e+00 -8.361826656531039828e-16 -1.275835977280423895e-15 0.000000000000000000e+00 -1.793155016181382554e-15 -2.350627381511673816e-15 -2.698674130809174640e-15 -3.828644837186476644e-16 5.260726710402803416e-16 0.000000000000000000e+00 0.000000000000000000e+00 0.000000000000000000e+00 0.000000000000000000e+00 3.604349259542709581e-15 -2.067215724224905185e-15 0.000000000000000000e+00 -1.244514583707987383e-15 6.429487868853517745e-16 3.758240849526403027e-01 6.200770663270431804e-01 2.819960379179245802e+00 6.353909823956237490e-01 -2.975387179227528267e-01 -5.385192186673531944e-01 6.540447289948610354e+00 1.069811421704808918e+00 9.113175522079480118e+00 -9.703141453933268323e-01 7.780339130776292578e-01 -1.875024138430348986e+00 0.000000000000000000e+00 0.000000000000000000e+00 0.000000000000000000e+00 -2.062953569067371831e-15 -1.697796020782410019e-15 0.000000000000000000e+00 -1.521495622420837189e-15 4.100282286945655631e-16 0.000000000000000000e+00 -3.097412853590374050e-15 -1.663746344078586337e-15 1.943844922236671869e-15 0.000000000000000000e+00 0.000000000000000000e+00 0.000000000000000000e+00 0.000000000000000000e+00 -1.494899514571288002e-15 2.113659350076417975e-15 0.000000000000000000e+00 -1.136817641037523897e-15 -6.081250214306266572e-16 -3.097412853590374050e-15 -1.663746344078586337e-15 1.943844922236671869e-15 0.000000000000000000e+00 -2.258497246271851270e-15 -1.343435723286049972e-15 0.000000000000000000e+00 -1.403502023153743684e-15 1.608311432075612195e-15 0.000000000000000000e+00 1.402124722276787597e-15 3.981039081174084332e-16 -3.097412853590374050e-15 -1.663746344078586337e-15 1.943844922236671869e-15 0.000000000000000000e+00 0.000000000000000000e+00 0.000000000000000000e+00 0.000000000000000000e+00 7.814551939634427450e-16 1.971722001532627863e-16 0.000000000000000000e+00 1.710087328579068272e-15 -1.435714432611313405e-15 -3.097412853590374050e-15 -1.663746344078586337e-15 1.943844922236671869e-15 0.000000000000000000e+00 0.000000000000000000e+00 0.000000000000000000e+00 0.000000000000000000e+00 -2.328965329076653505e-16 7.155949215246667827e-17 0.000000000000000000e+00 -1.270867902449670145e-15 -1.586034818259325734e-15
6.000000000000000000e+02 0.000000000000000000e+00 0.000000000000000000e+00 0.000000000000000000e+00 0.000000000000000000e+00 0.000000000000000000e+00 -8.745217337959122483e-01 -3.417622991521092057e-01 1.148031687550011420e-01 2.804729627975993123e-01 1.257749109765608830e+00 1.713260446948132065e+00 7.686095336023011093e-01 1.358724849605331964e-01 -1.465960827236517883e+00 2.987340707010825019e-02 -5.266003823054096061e-02 -5.394426368793486110e-03 -4.983039818598393178e-01 1.123265427345756073e+00 1.980419575010464173e-01 1.295843960719561261e-01 -2.211805017984994348e-01 2.740115197351907228e-01 -1.282214233970687678e-01 8.002982366059688268e-02 -7.748087286731252243e-01 -1.583751987373770848e-02 -5.251561734895320299e-01 -5.939621987567516026e-01 -1.774773404341783468e-04 -1.805361674224743307e-01 -1.276451802327074614e-01 -6.514159919990320305e-03 -2.755790936715780126e-01 -1.987599514691002767e-01 1.863469958879751531e-02 7.555809575510923776e-03 6.948253771069732090e-03 1.833527535382331319e-01 -2.828617244245941187e-01 4.033707390177195151e+00 3.097620824167789944e-01 1.392998509542345831e+00 -2.591226292468602921e+00 -6.923275677827018804e-01 8.320640684324805969e-01 2.842194529389582947e+00 1.419536715831676288e-01 -1.328714429854962464e-01 -1.343809744247216997e+00 1.059111019888721028e+00 -2.673713817072818522e+00 1.531829756327045766e+00 -4.857208411335582898e-01 3.368271538184795522e-01 1.170657699888764114e+00 0.000000000000000000e+00 0.000000000000000000e+00 0.000000000000000000e+00 -6.856396404107225753e-17 -5.300380825122600626e-16 0.000000000000000000e+00 -7.467953728935793420e-16 -3.479060407459338264e-15 0.000000000000000000e+00 -2.498462845613477263e-15 -2.625009075145992614e-16 4.558390851594216840e-16 0.000000000000000000e+00 0.000000000000000000e+00 0.000000000000000000e+00 0.000000000000000000e+00 -6.636505169129232572e-16 -1.657031266300491828e-15 0.000000000000000000e+00 -2.830680158952631791e-15 -3.396497585929635413e-15 -2.498462845613477263e-15 -2.625009075145992614e-16 4.558390851594216840e-16 0.000000000000000000e+00 -1.994450059873487650e-16 -1.655885311613978873e-15 0.000000000000000000e+00 6.361070178724227774e-17 -2.947812437422568594e-15 0.000000000000000000e+00 -2.016507895328953507e-15 -2.021715696710878011e-15 -2.498462845613477263e-15 -2.625009075145992614e-16 4.558390851594216840e-16 0.000000000000000000e+00 0.000000000000000000e+00 0.000000000000000000e+00 0.000000000000000000e+00 -7.197771510445920127e-16 -1.374857691733933469e-15 0.000000000000000000e+00 -1.715053390486996094e-15 -2.622354305755617633e-15 -2.498462845613477263e-15 -2.625009075145992614e-16 4.558390851594216840e-16 0.000000000000000000e+00 0.000000000000000000e+00 0.000000000000000000e+00 0.000000000000000000e+00 3.640885763038445942e-15 -2.228991239041376751e-15 0.000000000000000000e+00 -1.236667038636690758e-15 5.813750943626321284e-16 3.699373114786890238e-01 6.422965944616316758e-01 2.806138988754081520e+00 6.077294537487759607e-01 -3.478861193607055702e-01 -4.255390569516772081e-01 6.910207028186897027e+00 1.233415141981110796e+00 9.578715732318405784e+00 -1.031974783086461178e+00 8.339327249067545189e-01 -1.850241250448779295e+00 0.000000000000000000e+00 0.000000000000000000e+00 0.000000000000000000e+00 -2.193103247413238599e-15 -1.624659028091093115e-15 0.000000000000000000e+00 -1.549093584212266415e-15 3.742145551287445539e-16 0.000000000000000000e+00 -3.081266964372666478e-15 -1.661254718391868256e-15 2.006609990331566208e-15 0.000000000000000000e+00 0.000000000000000000e+00 0.000000000000000000e+00 0.000000000000000000e+00 -1.500213050323466713e-15 2.046538343777752544e-15 0.000000000000000000e+00 -1.183067222193554972e-15 -6.656751844563297655e-16 -3.081266964372666478e-15 -1.661254718391868256e-15 2.006609990331566208e-15 0.000000000000000000e+00 -2.336603487375632043e-15 -1.363518228951641368e-15 0.000000000000000000e+00 -1.428186913735197227e-15 1.719777928475653988e-15 0.000000000000000000e+00 1.526905996050718872e-15 3.005073318189592357e-16 -3.081266964372666478e-15 -1.661254718391868256e-15 2.006609990331566208e-15 0.000000000000000000e+00 0.000000000000000000e+00 0.000000000000000000e+00 0.000000000000000000e+00 6.518243655359826794e-16 2.658165105006060873e-16 0.000000000000000000e+00 1.701131614181188807e-15 -1.325899998573068270e-15 -3.081266964372666478e-15 -1.661254718391868256e-15 2.006609990331566208e-15 0.000000000000000000e+00 0.000000000000000000e+00 0.000000000000000000e+00 0.000000000000000000e+00 -4.002012084090289294e-16 3.018742094192633245e-16 0.000000000000000000e+00 -1.208196435062700677e-15 -1.608320268034109539e-15
